<svg viewBox="0 0 96 96" fill="none" xmlns="http://www.w3.org/2000/svg">
<!-- Figma Pictogram/planner (421:9575), Ross's 2.5 stroke redraw, parts tagged for the loop (the play is marked and the arrow drawn) -->
<g stroke="currentColor" stroke-width="2.5" stroke-miterlimit="10">
<path stroke-linejoin="round" d="M22.13 28.78V55.84C22.13 58.65 24.43 60.95 27.24 60.95H68.76C71.57 60.95 73.87 58.65 73.87 55.84V24.7"/>
<path stroke-linecap="round" stroke-linejoin="round" d="M28.69 24.62H19.19V19.54H76.81V24.62H37.19"/>
<path stroke-linecap="round" stroke-linejoin="round" d="M48 79.56V66.12"/>
<path stroke-linecap="round" stroke-linejoin="round" d="M48 19.27V16.44"/>
<path stroke-linecap="round" stroke-linejoin="round" d="M47.93 70.24L37.46 79.56"/>
<path stroke-linecap="round" stroke-linejoin="round" d="M48.07 70.24L58.54 79.56"/>
<g class="pg-mark pg-mark--a">
<path stroke-linecap="round" stroke-linejoin="round" d="M59.82 33.59L66.4 40.17"/>
<path stroke-linecap="round" stroke-linejoin="round" d="M59.82 40.17L66.4 33.59"/>
</g>
<g class="pg-mark pg-mark--b">
<path stroke-linecap="round" stroke-linejoin="round" d="M41.42 47.63L48 54.21"/>
<path stroke-linecap="round" stroke-linejoin="round" d="M41.42 54.21L48 47.63"/>
</g>
<g class="pg-target">
<path stroke-linecap="round" stroke-linejoin="round" d="M29.8 35.88C29.8 38.24 31.71 40.15 34.07 40.15C36.42 40.15 38.33 38.24 38.33 35.88C38.33 33.53 36.42 31.62 34.07 31.62C31.71 31.62 29.8 33.53 29.8 35.88Z"/>
</g>
<path class="pg-play pg-lead" pathLength="100" stroke-linecap="round" stroke-linejoin="round" d="M57.77 52.42C56.84 39.67 44.04 36.31 44.04 36.31"/>
<g class="pg-tip">
<path stroke-linecap="round" stroke-linejoin="round" d="M43.65 36.24L46.02 41.43"/>
<path stroke-linecap="round" stroke-linejoin="round" d="M43.65 36.23L48.77 34.12"/>
</g>
</g>
</svg>
