<?xml version="1.0" encoding="UTF-8"?>
<svg id="Layer_2" xmlns="http://www.w3.org/2000/svg" version="1.1" viewBox="0 0 96 96">
  <!-- Generator: Adobe Illustrator 30.6.0, SVG Export Plug-In . SVG Version: 2.1.4 Build 109)  -->
  <g>
    <line x1="21.918" y1="47.385" x2="44.698" y2="47.385" fill="none" stroke="#6eaa8c" stroke-linejoin="round" stroke-width="2.5"/>
    <path d="M42.659,74.284c-2.548-2.129-27.948-24.643.201-53.815" fill="none" stroke="#6eaa8c" stroke-linejoin="round" stroke-width="2.5"/>
    <path d="M27.671,32.071c4.398,2.15,10.141,3.997,16.871,3.981" fill="none" stroke="#6eaa8c" stroke-linejoin="round" stroke-width="2.5"/>
    <path d="M24.24,64.549c4.632-2.823,11.651-5.879,20.302-5.859" fill="none" stroke="#6eaa8c" stroke-linejoin="round" stroke-width="2.5"/>
    <path d="M44.703,74.435c-14.931,0-27.033-12.103-27.033-27.032s12.102-27.033,27.033-27.033v54.065Z" fill="none" stroke="#6eaa8c" stroke-miterlimit="10" stroke-width="2.5"/>
  </g>
  <line x1="49.913" y1="35.159" x2="62.596" y2="35.159" fill="none" stroke="#6eaa8c" stroke-miterlimit="10" stroke-width="2.5"/>
  <line x1="49.913" y1="41.701" x2="62.596" y2="41.701" fill="none" stroke="#6eaa8c" stroke-miterlimit="10" stroke-width="2.5"/>
  <line x1="49.913" y1="48.244" x2="62.596" y2="48.244" fill="none" stroke="#6eaa8c" stroke-miterlimit="10" stroke-width="2.5"/>
  <line x1="49.913" y1="61.326" x2="62.596" y2="61.326" fill="none" stroke="#6eaa8c" stroke-miterlimit="10" stroke-width="2.5"/>
  <line x1="49.913" y1="67.869" x2="62.596" y2="67.869" fill="none" stroke="#6eaa8c" stroke-miterlimit="10" stroke-width="2.5"/>
  <line x1="49.913" y1="54.784" x2="62.596" y2="54.784" fill="none" stroke="#6eaa8c" stroke-miterlimit="10" stroke-width="2.5"/>
  <line x1="49.913" y1="74.411" x2="62.596" y2="74.411" fill="none" stroke="#6eaa8c" stroke-miterlimit="10" stroke-width="2.5"/>
  <polyline points="45.345 28.535 67.788 28.535 67.788 75.63" fill="none" stroke="#6eaa8c" stroke-linejoin="round" stroke-width="2.5"/>
  <polyline points="78.33 75.63 78.33 56.89 71.978 56.89" fill="none" stroke="#6eaa8c" stroke-linejoin="round" stroke-width="2.5"/>
  <line x1="73.152" y1="62.16" x2="73.152" y2="66.649" fill="none" stroke="#6eaa8c" stroke-miterlimit="10" stroke-width="2.5"/>
  <line x1="73.152" y1="71.109" x2="73.152" y2="75.63" fill="none" stroke="#6eaa8c" stroke-miterlimit="10" stroke-width="2.5"/>
</svg>