<?xml version="1.0" encoding="UTF-8"?>
<svg id="Layer_1" xmlns="http://www.w3.org/2000/svg" version="1.1" viewBox="0 0 96 96">
  <!-- Generator: Adobe Illustrator 30.2.1, SVG Export Plug-In . SVG Version: 2.1.1 Build 1)  -->
  <g>
    <g>
      <path d="M44.876,67.614c-3.07-5.559-2.889-13.184,4.689-18.627,6.952-4.991,26.767-6.988,26.767-6.988,0,0-1.834,19.057-7.113,26.522-7.162,10.129-16.492,7.843-21.721,2.587" fill="none" stroke="#6eaa8c" stroke-linejoin="round" stroke-width="2.5"/>
      <line x1="53.196" y1="65.599" x2="63.607" y2="66.574" fill="none" stroke="#6eaa8c" stroke-linecap="round" stroke-linejoin="round" stroke-width="2.5"/>
      <line x1="59.933" y1="58.783" x2="66.707" y2="59.152" fill="none" stroke="#6eaa8c" stroke-linecap="round" stroke-linejoin="round" stroke-width="2.5"/>
    </g>
    <line x1="68.305" y1="50.222" x2="42.377" y2="76.149" fill="none" stroke="#6eaa8c" stroke-linecap="round" stroke-linejoin="round" stroke-width="2.5"/>
    <line x1="59.202" y1="53.448" x2="59.075" y2="51.007" fill="none" stroke="#6eaa8c" stroke-linecap="round" stroke-linejoin="round" stroke-width="2.5"/>
    <line x1="52.213" y1="59.61" x2="51.628" y2="54.062" fill="none" stroke="#6eaa8c" stroke-linecap="round" stroke-linejoin="round" stroke-width="2.5"/>
  </g>
  <g>
    <polyline points="36.752 76.149 19.668 76.149 19.668 31.026 30.846 19.851 62.025 19.851 62.025 38.532" fill="none" stroke="#6eaa8c" stroke-linejoin="round" stroke-width="2.5"/>
    <polyline points="32.668 25.253 32.668 32.887 25.025 32.887" fill="none" stroke="#6eaa8c" stroke-miterlimit="10" stroke-width="2.5"/>
  </g>
</svg>